<svg width="70" height="70" viewBox="0 0 70 70" fill="none" xmlns="http://www.w3.org/2000/svg">
<path d="M69.022 36.481C69.022 45.3324 65.5567 53.8213 59.3884 60.0801C53.2203 66.3391 44.8544 69.8553 36.1313 69.8553C27.4082 69.8553 19.0423 66.3391 12.8741 60.0801C6.70592 53.8213 3.24066 45.3324 3.24066 36.481H36.1313H69.022Z" fill="url(#paint0_linear_1_533)"/>
<path d="M36.1312 31.39C42.3814 31.39 47.4482 26.2487 47.4482 19.9066C47.4482 13.5645 42.3814 8.42322 36.1312 8.42322C29.8811 8.42322 24.8143 13.5645 24.8143 19.9066C24.8143 26.2487 29.8811 31.39 36.1312 31.39Z" fill="url(#paint1_linear_1_533)"/>
<path d="M65.7812 33.3744C65.7812 42.2258 62.316 50.7146 56.1478 56.9736C49.9796 63.2325 41.6138 66.7486 32.8907 66.7486C24.1674 66.7486 15.8016 63.2325 9.63344 56.9736C3.46525 50.7146 1.31716e-06 42.2258 0 33.3744H32.8907H65.7812Z" fill="black"/>
<path d="M32.8906 28.2834C39.1408 28.2834 44.2076 23.1422 44.2076 16.8C44.2076 10.4579 39.1408 5.31665 32.8906 5.31665C26.6404 5.31665 21.5736 10.4579 21.5736 16.8C21.5736 23.1422 26.6404 28.2834 32.8906 28.2834Z" fill="black"/>
<defs>
<linearGradient id="paint0_linear_1_533" x1="-2.26131" y1="53.1681" x2="61.7535" y2="52.9381" gradientUnits="userSpaceOnUse">
<stop offset="0.197917" stop-color="#B16CEA"/>
<stop offset="0.557292" stop-color="#FF5E69"/>
<stop offset="0.828125" stop-color="#FF8A56"/>
<stop offset="1" stop-color="#FFA84B"/>
</linearGradient>
<linearGradient id="paint1_linear_1_533" x1="17.0108" y1="17.3171" x2="43.8375" y2="15.2709" gradientUnits="userSpaceOnUse">
<stop offset="0.197917" stop-color="#B16CEA"/>
<stop offset="0.557292" stop-color="#FF5E69"/>
<stop offset="0.828125" stop-color="#FF8A56"/>
<stop offset="1" stop-color="#FFA84B"/>
</linearGradient>
</defs>
</svg>
